<?xml version="1.0" encoding="utf-8"?>
<!-- Generator: Adobe Illustrator 25.4.1, SVG Export Plug-In . SVG Version: 6.00 Build 0)  -->
<svg version="1.1"
	 id="svg2" xmlns:cc="http://creativecommons.org/ns#" xmlns:dc="http://purl.org/dc/elements/1.1/" xmlns:rdf="http://www.w3.org/1999/02/22-rdf-syntax-ns#" xmlns:svg="http://www.w3.org/2000/svg"
	 xmlns="http://www.w3.org/2000/svg" xmlns:xlink="http://www.w3.org/1999/xlink" x="0px" y="0px" viewBox="0 0 45 45"
	 style="enable-background:new 0 0 45 45;" xml:space="preserve">
<style type="text/css">
	.st0{clip-path:url(#SVGID_00000109749814848110228170000010976103654718400158_);}
	.st1{fill:#094C26;}
	.st2{fill:#0FA64B;}
</style>
<g id="g10" transform="matrix(1.25,0,0,-1.25,0,45)">
	<g id="g12">
		<g>
			<defs>
				
					<rect id="SVGID_1_" x="-1.5" y="-0.8" transform="matrix(0.7696 -0.6386 0.6386 0.7696 -7.867 15.886)" width="39.2" height="39.2"/>
			</defs>
			<clipPath id="SVGID_00000027577244247623164310000016650194100946507418_">
				<use xlink:href="#SVGID_1_"  style="overflow:visible;"/>
			</clipPath>
			<g style="clip-path:url(#SVGID_00000027577244247623164310000016650194100946507418_);">
				<path class="st1" d="M11.8,8.6c1.2-0.1,2.2-0.4,3.2-1c0.1-0.1,0.2-0.1,0.3-0.2c0.3-0.2,0.6-0.1,0.8,0.2c0.2,0.3,0.1,0.6-0.2,0.8
					c-1,0.7-2.2,1.1-3.4,1.2c-0.2,0-0.4,0.1-0.7,0.1c0.1,1.4,0.2,2.8,0.3,4.2c0,0.1,0.3,0.3,0.4,0.3c0.4,0,0.8,0,1.2,0
					c0.1,0,0.2,0.1,0.4,0.2c-0.1,0.1-0.1,0.3-0.2,0.4c-0.4,0.3-0.9,0.6-1.2,0.9c-0.2,0.1-0.3,0.4-0.3,0.5c0.2,1.7,0.4,3.4,0.7,5.1
					c0.3,1.6,1.1,3,2.5,3.9c0.9,0.5,1.9,0.7,2.9,0.7c1.6,0,3-0.5,4.4-1.2c1.1-0.5,1.8-1.4,2.3-2.5c0.8-1.7,0.8-3.5,0.5-5.4
					c-0.8,0.1-1.6,0.2-2.4,0.3c-0.2,0-0.4,0-0.6,0c-0.3-0.1-0.6-0.2-0.6-0.6c0-0.4,0.3-0.5,0.7-0.5c0.9-0.1,1.8-0.1,2.8-0.2
					c-0.3-1-0.5-1.8-0.9-2.6c-1.4-3.3-3-6.4-5.2-9.2c-1-1.2-2.1-2.4-3.6-3.1c-1.8-0.8-3.2-0.1-3.7,1.8C11.8,4.6,11.8,6.6,11.8,8.6z
					 M15.8,21c0-0.2-0.1-0.4-0.1-0.6c0.1-0.2,0.3-0.4,0.5-0.4c1.2,0.1,2.3-0.1,3.4-0.6c0.3-0.1,0.6,0,0.7,0.3c0.1,0.3,0,0.6-0.3,0.7
					c-1.2,0.5-2.4,0.8-3.7,0.7C16.2,21.2,16,21.1,15.8,21z"/>
				<path class="st2" d="M23.1,34c1,0.2,1.9,0.5,2.6-0.5c0.7-0.9,0-1.8-0.2-2.6c0.6-0.3,1.2-0.6,1.7-1c1.2-0.9,1.1-2.2-0.2-2.9
					c-0.9-0.5-1.8-1-2.7-1.4c-0.1-0.1-0.3-0.1-0.5,0c-0.9,0.3-1.8,0.7-2.7,1.1c-0.3,0.1-0.4,0.3-0.4,0.6c-0.2,1.2-0.5,2.4-0.8,3.5
					c-0.1,0.6-0.7,0.7-1,0.2c-0.1-0.2-0.1-0.5,0-0.7c0.4-1,0.6-2.1,0.6-3.2c-1-0.1-2.1-0.2-3-0.2c-0.7,1.1-1.5,2.3-2.2,3.4
					c-0.2,0.2-0.4,0.4-0.6,0.6c-0.6,0.6-0.7,1.3-0.4,2c0.3,0.8,0.9,1.2,1.7,1.1c0.9-0.1,1.7-0.2,2.6-0.4c0.2,0,0.3-0.1,0.5-0.2
					c0.5,1.2,1.2,2,2.6,2C21.9,35.7,22.6,35,23.1,34z"/>
			</g>
		</g>
	</g>
</g>
</svg>
